<svg width="369.63414634146335" height="121.86000175476075" viewBox="0 0 369.63414634146335 121.86000175476075" class="css-1j8o68f"><defs id="SvgjsDefs2593"><linearGradient id="SvgjsLinearGradient2600"><stop id="SvgjsStop2601" stop-color="#fbb040" offset="0"></stop><stop id="SvgjsStop2602" stop-color="#f9ed32" offset="1"></stop></linearGradient></defs><g id="SvgjsG2594" featurekey="symbolFeature-0" transform="matrix(1.1574154552000402,0,0,1.1574154552000402,-4.745403255940426,10.149391664331999)" fill="url(#SvgjsLinearGradient2600)"><defs xmlns="http://www.w3.org/2000/svg"><g id="a"><path fill="url(#SvgjsLinearGradient2600)" stroke="none" d=" M 24.1 64.55 Q 23.5 64.55 23.2 64.6 L 19.7 64.75 Q 19.55 64.75 16.25 64.9 15.7 64.9 14.6 65 L 4.2 65.65 4.1 65.75 4.2 65.95 Q 4.8 65.95 5.85 66.05 L 14.6 66.55 Q 15.7 66.65 16.25 66.65 19.55 66.8 19.7 66.8 22.1 66.9 23.2 67 L 26.75 67.2 Q 27.4 67.2 28.5 67.3 L 33.4 67.25 33.8 67.2 34.15 67.2 42.2 65.95 42.35 65.8 Q 42.35 65.65 42.2 65.65 L 41.8 65.5 34.15 64.35 33.8 64.35 33.4 64.3 28.5 64.25 Q 27.4 64.35 26.75 64.35 L 24.1 64.55 M 14.2 75.65 L 14.1 75.75 14.2 75.95 Q 14.8 75.95 15.85 76.05 L 24.6 76.55 Q 25.7 76.65 26.25 76.65 29.55 76.8 29.7 76.8 32.1 76.9 33.2 77 L 36.75 77.2 Q 37.4 77.2 38.5 77.3 L 43.4 77.25 43.8 77.2 44.15 77.2 52.2 75.95 52.35 75.8 Q 52.35 75.65 52.2 75.65 L 51.8 75.5 44.15 74.35 43.8 74.35 43.4 74.3 38.5 74.25 Q 37.4 74.35 36.75 74.35 L 34.1 74.55 Q 33.5 74.55 33.2 74.6 L 29.7 74.75 Q 29.55 74.75 26.25 74.9 25.7 74.9 24.6 75 L 14.2 75.65 M 57.85 26.85 Q 57.80078125 26.8349609375 57.75 26.8 43.9349609375 22.5740234375 40.25 12.6 40.1986328125 12.4951171875 40.1 12.4 38.004296875 8.91484375 32.65 11.05 22.135546875 15.2001953125 17.35 27.85 17.3607421875 27.88984375 17.35 27.9 15.3529296875 34.9515625 19.5 36.95 19.5005859375 36.999609375 19.5 37.05 19.506640625 38.763671875 20.7 39.95 21.944140625 41.201171875 23.65 41.2 25.3228515625 41.2068359375 26.5 40 26.8298828125 40.20703125 27.15 40.4 27.10625 40.5328125 27.05 40.65 L 27.05 40.7 Q 27.0056640625 41.1060546875 27 41.55 27.006640625 43.263671875 28.2 44.45 29.444140625 45.701171875 31.15 45.7 32.21953125 45.7021484375 33.1 45.2 34.4447265625 46.7228515625 35.4 48.45 35.45 48.4751953125 35.45 48.5 44.3294921875 61.6419921875 54.1 67.85 54.05078125 68.187109375 54.05 68.55 54.056640625 70.263671875 55.25 71.45 56.494140625 72.701171875 58.2 72.7 59.928515625 72.70703125 61.1 71.45 L 61.05 71.5 Q 61.2001953125 71.37421875 61.3 71.25 62.4353515625 71.566796875 63.45 71.85 63.48203125 73.5390625 64.65 74.7 65.894140625 75.951171875 67.6 75.95 69.328515625 75.95703125 70.5 74.7 L 70.5 74.7 Q 70.946875 74.2599609375 71.25 73.75 75.3224609375 74.4513671875 76.7 73.6 77.9359375 72.916015625 77.85 71.5 77.8328125 70.570703125 76.85 69.15 70.701171875 59.9509765625 66.85 48.75 65.813671875 45.8115234375 64.95 42.7 64.22578125 39.9248046875 63.6 37.1 L 63.6 37.05 Q 63.6109375 37.012890625 63.6 36.95 L 63.6 36.75 63.55 36.4 63.55 36 63.5 36 63.45 36.05 63.45 36.1 63.4 36.1 Q 62.89375 33.72109375 62.45 31.25 L 62.45 31.25 Q 61.79296875 27.7107421875 57.85 26.85 M 58.4 33.6 L 58.55 33.6 58.7 33.65 58.75 33.65 58.95 33.75 59.25 33.95 62.7 37.15 62.75 37.25 Q 62.75 37.4 62.55 37.4 L 60.85 37.2 60.7 37.15 60.55 37.15 58.4 36.7 58.25 36.7 57.9 36.65 57.45 36.5 57.35 36.4 57.2 36.3 56.9 36 56.75 35.75 56.7 35.7 56.4 35 56.35 35 56.35 34.9 56.3 34.75 56.2 34.3 Q 56.2 34.15 56.35 34.05 L 56.75 33.85 56.9 33.8 56.95 33.75 57 33.75 57.5 33.65 57.65 33.6 57.8 33.6 58.1 33.55 58.4 33.6 M 44.4 43.45 L 47.6 48.7 51.2 53.6 51.4 53.8 52.35 54.95 Q 52.75 55.45 53 55.65 L 53.3 56.05 61.6 64.1 61.6 64.2 Q 61.6 64.35 61.45 64.25 L 57.3 62.45 57 62.25 56.65 62.1 55.3 61.3 Q 54.8 61 54.6 60.8 L 53.05 59.8 47.8 55.15 47.65 54.95 Q 47.5 54.85 46.9 54.1 L 46.5 53.7 44.05 50.5 41.05 45.5 41 45.35 40.9 45.25 40.3 44.1 37.15 39.55 37 39.4 36.25 38.5 35.9 38.2 35.75 38 33.7 36.15 31.8 34.9 31.65 34.85 31.5 34.75 28.75 33.55 26.75 33 26.7 32.95 Q 26.7 32.85 26.8 32.85 L 28 32.65 30.05 32.65 31.4 32.85 32.15 33.05 32.35 33.05 32.55 33.15 33.35 33.35 35.4 34.25 36.25 34.75 Q 37.15 35.25 37.95 35.9 L 38.75 36.55 38.95 36.75 39.15 36.9 40.75 38.45 43.25 41.6 44.2 43.05 44.4 43.45 M 58.25 38.9 L 58.75 38.9 59.1 38.95 59.25 38.95 59.4 39 59.5 39 59.6 39.05 60.05 39.35 60.3 39.6 60.45 39.7 62.5 41.35 62.6 41.5 64.05 42.8 64.1 42.95 63.9 43.05 62 42.75 61.85 42.7 61.65 42.7 59.85 42.25 59.45 42.2 59.1 42.1 58.7 42.05 58.35 41.95 58.2 41.85 58.15 41.8 58.05 41.75 57.95 41.65 57.8 41.55 57.4 41.05 57.35 41 57.3 40.9 57.2 40.8 56.95 40.3 56.95 40.25 56.9 40.25 56.9 40.15 56.85 40.05 56.7 39.55 Q 56.7 39.4 56.85 39.3 L 57.3 39.1 57.45 39.05 57.5 39.05 57.55 39 57.8 39 58.1 38.95 58.25 38.9 M 60.25 44.55 L 60.6 44.55 60.95 44.6 61.3 44.7 61.35 44.75 61.45 44.8 61.6 44.9 Q 61.85 45.05 61.9 45.1 L 64.25 47.25 64.4 47.35 64.5 47.5 65.95 48.95 66 49.1 Q 65.85 49.25 65.8 49.2 L 60.45 47.75 60.1 47.6 59.95 47.5 59.85 47.45 59.8 47.4 59.65 47.3 59.5 47.15 59.1 46.6 59 46.5 58.9 46.35 58.8 46.05 58.65 45.8 58.65 45.75 58.6 45.7 58.6 45.55 58.45 45.05 Q 58.4 44.9 58.6 44.8 L 59.1 44.65 59.2 44.6 59.35 44.6 59.65 44.55 59.95 44.55 60.1 44.5 60.2 44.5 60.25 44.55 M 29.35 17.9 L 29.7 17.6 Q 30.45 16.9 31.1 16.6 L 31.5 16.45 31.7 16.35 32.25 16.2 32.35 16.15 32.45 16.15 32.65 16.1 32.85 16.1 33.05 16.05 34.45 16.05 34.6 16.1 34.75 16.1 35.05 16.2 35.8 16.35 35.85 16.4 35.95 16.4 36.25 16.55 36.55 16.75 36.8 16.85 37 17 37.1 17.05 Q 37.2 17.25 37.05 17.35 L 36.85 17.5 36.25 18.1 36.15 18.15 36.15 18.2 36.1 18.2 36.1 18.25 35.3 18.8 35.05 19.05 35 19.05 34.15 19.6 34.05 19.7 33.95 19.75 33.8 19.85 33.7 19.95 33.45 20.1 32.9 20.35 32.6 20.45 32.55 20.5 32.45 20.5 32.15 20.6 Q 32.15 20.65 32 20.65 L 31.7 20.75 31.4 20.9 31.1 21 30.8 21.15 30.5 21.35 30.35 21.4 28.35 23 27.9 23.5 27.65 23.7 25.2 27 25 27.1 Q 24.8 27 24.85 26.85 L 24.85 26.65 25.15 25.05 25.25 24.8 25.3 24.5 25.8 22.95 26.85 20.9 28.15 19.2 28.45 18.9 28.6 18.7 29.35 17.9 Z"></path></g></defs><g xmlns="http://www.w3.org/2000/svg" transform="matrix( 1, 0, 0, 1, 0,0) "><use xmlns:xlink="http://www.w3.org/1999/xlink" xlink:href="#a"></use></g></g><g id="SvgjsG2595" featurekey="nameFeature-0" transform="matrix(2.724816306077332,0,0,2.724816306077332,107.61582375777773,-20.817597513922255)" fill="#ffffff"><path d="M-0.96 40 l5.64 -32 l6.48 0 c4.12 0 4.76 2.52 4 8.56 l-0.2 1.28 c-1.4 6.04 -2.92 8.56 -7.04 8.56 l-2.48 0 l-2.4 13.6 l-4 0 z M6 23.2 l2.48 0 c1.2 0 1.8 -1 2.76 -5.36 l0.2 -1.28 c0.6 -4.36 0.36 -5.36 -0.84 -5.36 l-2.48 0 z M13.84 40 l5.64 -32 l4 0 l-4.92 28 l5.2 0 l-0.72 4 l-9.2 0 z M25.439999999999998 40 l2.96 -16.8 c1.96 -11.16 2.76 -15.56 8.76 -15.56 s5.2 4.4 3.24 15.56 l-2.96 16.8 l-4 0 l1.64 -9.2 l-4 0 l-1.64 9.2 l-4 0 z M31.64 27.6 l4 0 l0.76 -4.4 c1.84 -10.4 2.16 -12.36 0.16 -12.36 s-2.32 1.96 -4.16 12.36 z M44.44 40 l2.44 -13.92 l-1.4 -18.08 l4 0 l0.24 12.32 l0.4 0 l4.56 -12.32 l4 0 l-7.8 18.08 l-2.44 13.92 l-4 0 z M55.44 40 l5.64 -32 l6.48 0 c4.12 0 4.76 2.52 4 8.56 l-0.2 1.28 c-1.4 6.04 -2.92 8.56 -7.04 8.56 l-2.48 0 l-2.4 13.6 l-4 0 z M62.4 23.2 l2.48 0 c1.2 0 1.8 -1 2.76 -5.36 l0.2 -1.28 c0.6 -4.36 0.36 -5.36 -0.84 -5.36 l-2.48 0 z M70.24000000000001 40 l2.96 -16.8 c1.96 -11.16 2.76 -15.56 8.76 -15.56 s5.2 4.4 3.24 15.56 l-2.96 16.8 l-4 0 l1.64 -9.2 l-4 0 l-1.64 9.2 l-4 0 z M76.44 27.6 l4 0 l0.76 -4.4 c1.84 -10.4 2.16 -12.36 0.16 -12.36 s-2.32 1.96 -4.16 12.36 z M86.24000000000001 40 l5.64 -32 l4 0 l-4.92 28 l5.2 0 l-0.72 4 l-9.2 0 z"></path></g><g id="SvgjsG2596" featurekey="sloganFeature-0" transform="matrix(1.15,0,0,1.15,105.05633193254471,98.62999978065491)" fill="#ffffff"><path d="M0.8 11.58 c0.98 -5.58 1.38 -7.78 4.18 -7.78 c2.06 0 2.4 1.26 2 4.28 l-1.86 0 c0.3 -2.18 0.18 -2.68 -0.42 -2.68 c-0.92 0 -1.1 0.98 -2.02 6.18 c-1.02 5.78 -1.16 6.62 -0.24 6.62 c0.66 0 0.94 -0.5 1.44 -3.08 l1.88 0 c-0.78 3.7 -1.52 5.08 -3.68 5.08 c-2.8 0 -2.4 -2.22 -1.28 -8.62 z M7.58 11.58 c0.98 -5.58 1.5 -7.78 4.5 -7.78 s2.72 2.2 1.74 7.78 c-1.12 6.4 -1.64 8.62 -4.64 8.62 s-2.72 -2.22 -1.6 -8.62 z M9.54 18.2 c1.12 0 1.26 -0.84 2.28 -6.62 c0.92 -5.2 1.1 -6.18 -0.02 -6.18 s-1.3 0.98 -2.22 6.18 c-1.02 5.78 -1.16 6.62 -0.04 6.62 z M14.14 20 l2.82 -16 l1.8 0 l0.9 9.8 l0 -0.2 l1.7 -9.6 l2 0 l-2.82 16 l-1.8 0 l-1.06 -8.8 l-0.02 0.2 l-1.52 8.6 l-2 0 z M22.540000000000003 20 l2.82 -16 l1.8 0 l0.9 9.8 l0 -0.2 l1.7 -9.6 l2 0 l-2.82 16 l-1.8 0 l-1.06 -8.8 l-0.02 0.2 l-1.52 8.6 l-2 0 z M30.94 20 l2.82 -16 l4.6 0 l-0.28 1.6 l-2.6 0 l-0.92 5.2 l2.2 0 l-0.28 1.6 l-2.2 0 l-0.98 5.6 l2.6 0 l-0.36 2 l-4.6 0 z M38.22 11.58 c0.98 -5.58 1.38 -7.78 4.18 -7.78 c2.06 0 2.4 1.26 2 4.28 l-1.86 0 c0.3 -2.18 0.18 -2.68 -0.42 -2.68 c-0.92 0 -1.1 0.98 -2.02 6.18 c-1.02 5.78 -1.16 6.62 -0.24 6.62 c0.66 0 0.94 -0.5 1.44 -3.08 l1.88 0 c-0.78 3.7 -1.52 5.08 -3.68 5.08 c-2.8 0 -2.4 -2.22 -1.28 -8.62 z M44.92 20 l2.5 -14.2 l-2 0 l0.32 -1.8 l6 0 l-0.32 1.8 l-2 0 l-2.5 14.2 l-2 0 z M50.120000000000005 20 l2.82 -16 l2 0 l-2.82 16 l-2 0 z M54.120000000000005 20 l2.82 -16 l1.8 0 l0.9 9.8 l0 -0.2 l1.7 -9.6 l2 0 l-2.82 16 l-1.8 0 l-1.06 -8.8 l-0.02 0.2 l-1.52 8.6 l-2 0 z M63.8 11.58 c0.98 -5.58 1.38 -7.78 4.38 -7.78 c2.28 0 2.6 1.26 2.2 4.28 l-1.86 0 c0.3 -2.18 0.18 -2.68 -0.62 -2.68 c-1.12 0 -1.3 0.98 -2.22 6.18 c-1.02 5.78 -1.16 6.62 -0.04 6.62 c1.06 0 1.26 -0.76 2 -5 l-1.32 0 l0.28 -1.6 l3.2 0 l-0.14 0.78 c-0.98 5.6 -1.38 7.82 -4.38 7.82 s-2.6 -2.22 -1.48 -8.62 z M74.32000000000001 20 l2.82 -16 l3.24 0 c2.06 0 2.38 1.26 2 4.28 l-0.1 0.64 c-0.7 3.02 -1.46 4.28 -3.52 4.28 l-1.24 0 l-1.2 6.8 l-2 0 z M77.80000000000001 11.6 l1.24 0 c0.6 0 0.9 -0.5 1.38 -2.68 l0.1 -0.64 c0.3 -2.18 0.18 -2.68 -0.42 -2.68 l-1.24 0 z M81.72000000000001 20 l2.82 -16 l2 0 l-2.46 14 l2.6 0 l-0.36 2 l-4.6 0 z M87.52000000000001 20 l1.48 -8.4 c0.98 -5.58 1.38 -7.78 4.38 -7.78 s2.6 2.2 1.62 7.78 l-1.48 8.4 l-2 0 l0.82 -4.6 l-2 0 l-0.82 4.6 l-2 0 z M90.62000000000002 13.8 l2 0 l0.38 -2.2 c0.92 -5.2 1.08 -6.18 0.08 -6.18 s-1.16 0.98 -2.08 6.18 z M97.02000000000001 20 l1.22 -6.96 l-0.7 -9.04 l2 0 l0.12 6.16 l0.2 0 l2.28 -6.16 l2 0 l-3.9 9.04 l-1.22 6.96 l-2 0 z M102.52000000000001 20 l2.82 -16 l4.6 0 l-0.28 1.6 l-2.6 0 l-0.92 5.2 l2.2 0 l-0.28 1.6 l-2.2 0 l-0.98 5.6 l2.6 0 l-0.36 2 l-4.6 0 z M108.52000000000001 20 l2.82 -16 l3.24 0 c2.06 0 2.54 1.26 2.12 3.68 c-0.4 2.18 -0.88 3.42 -1.6 4.02 l-0.02 0.12 c0.48 0.18 0.48 1.12 0.28 3.46 l-0.44 4.72 l-2 0 l0.58 -4.72 c0.28 -2.38 0 -2.88 -0.6 -2.88 l-1.04 0 l-1.34 7.6 l-2 0 z M112.14000000000001 10.8 l1.24 0 c0.7 0 1.02 -0.7 1.46 -3.12 c0.26 -1.58 0.06 -2.08 -0.54 -2.08 l-1.24 0 z M116.98000000000002 15.120000000000001 l2.02 0 c-0.42 2.58 -0.3 3.08 0.42 3.08 c0.98 0 1.12 -0.82 1.5 -3 c0.56 -3.2 -3.54 -2.34 -2.8 -6.6 c0.44 -2.5 0.86 -4.8 3.86 -4.8 c2.22 0 2.6 1.26 2.2 4.28 l-2 0 c0.3 -2.18 0.16 -2.68 -0.48 -2.68 c-0.98 0 -1.18 1.08 -1.56 3.2 c-0.54 3.1 3.64 2 2.82 6.6 c-0.48 2.8 -0.88 5 -3.9 5 c-2.32 0 -2.62 -1.38 -2.08 -5.08 z"></path></g></svg>